# xmcd
#
# Track frame offsets: 
#        150
#        17185
#        29597
#        44297
#        64107
#        87022
#        118010
#        133362
#        157870
#        186187
#        198660
#        226260
#        244355
#        259925
#        275102
#        307032
#
# Disc length: 4422 seconds
#
# Revision: 0
# Processed by: cddbd v1.5.1PL0 Copyright (c) Steve Scherf et al.
# Submitted via: ExactAudioCopy v0.95a3
#
DISCID=ed114410
DTITLE=Prince - Peach And Black [CD2]
DYEAR=1900
DGENRE=Funk
TTITLE0=The Sex Of It
TTITLE1=Now's The Time
TTITLE2=Sheila E. Drum Solo
TTITLE3=Girls And Boys
TTITLE4=Slow Love
TTITLE5=I Could Never Take The Place Of Your Man
TTITLE6=Love And Happiness
TTITLE7=I Want To Take U Higher
TTITLE8=Let's Go Crazy
TTITLE9=When Doves Cry
TTITLE10=Purple Rain
TTITLE11=1999
TTITLE12=Kiss
TTITLE13=I'll Take You There
TTITLE14=Mother Popcorn
TTITLE15=It's Gonna Be A Beautiful Night
EXTD=
EXTT0=
EXTT1=
EXTT2=
EXTT3=
EXTT4=
EXTT5=
EXTT6=
EXTT7=
EXTT8=
EXTT9=
EXTT10=
EXTT11=
EXTT12=
EXTT13=
EXTT14=
EXTT15=
PLAYORDER=
